<svg viewBox="0 0 9 16" xmlns="http://www.w3.org/2000/svg">
    <path d="M6.492 7.294L3.14 6.306A.924.924 0 0 1 3.398 4.5h2.057c.379 0 .751.116 1.062.328.19.128.444.097.605-.062l1.08-1.063a.509.509 0 0 0-.056-.765A4.37 4.37 0 0 0 5.461 2V.5a.5.5 0 0 0-.496-.5h-.993a.5.5 0 0 0-.497.5V2h-.078C1.42 2-.169 3.71.014 5.738c.13 1.44 1.223 2.612 2.601 3.018l3.182.938a.926.926 0 0 1 .658.884c0 .51-.41.922-.916.922H3.481c-.378 0-.75-.116-1.061-.328a.481.481 0 0 0-.605.062l-1.08 1.063a.509.509 0 0 0 .055.766c.76.6 1.71.934 2.685.937v1.5a.5.5 0 0 0 .497.5h.993a.5.5 0 0 0 .497-.5v-1.506c1.446-.028 2.802-.894 3.28-2.272a3.436 3.436 0 0 0-2.25-4.428z" fill-rule="nonzero" />
</svg>
