<svg width="21" height="16" xmlns="http://www.w3.org/2000/svg">
    <path d="M17.428 10.02v5.122a.855.855 0 0 1-.857.858h-4.143a.43.43 0 0 1-.429-.429v-4.003a.43.43 0 0 0-.429-.429H9a.43.43 0 0 0-.429.429v4.003a.43.43 0 0 1-.428.429H3.998a.855.855 0 0 1-.857-.858V10.02a.43.43 0 0 1 .157-.332l6.715-5.533a.435.435 0 0 1 .547 0l6.715 5.533a.438.438 0 0 1 .153.332zm2.986-2.176L17.428 5.38V.431A.43.43 0 0 0 17 0h-2a.43.43 0 0 0-.43.43v2.595L11.375.39a1.712 1.712 0 0 0-2.179 0L.155 7.844a.43.43 0 0 0-.057.604l.91 1.108a.43.43 0 0 0 .604.057l8.401-6.923a.435.435 0 0 1 .547 0l8.4 6.923a.43.43 0 0 0 .604-.057l.911-1.108a.43.43 0 0 0-.06-.604z" fill-rule="nonzero" />
</svg>
