<svg width="9" height="14" xmlns="http://www.w3.org/2000/svg">
    <path d="M4.375 0c1.213 0 2.246.426 3.098 1.278.851.851 1.277 1.884 1.277 3.097 0 1.237-.362 2.654-1.085 4.252-.723 1.599-1.458 2.9-2.205 3.903L4.375 14c-.117-.14-.274-.344-.473-.613a38.47 38.47 0 0 1-1.05-1.557 26.028 26.028 0 0 1-1.33-2.275 17.309 17.309 0 0 1-1.05-2.572C.157 6.013 0 5.144 0 4.374c0-1.213.426-2.246 1.278-3.098C2.128.426 3.162 0 4.375 0m0 6.79c.653 0 1.213-.233 1.68-.7.467-.467.7-1.027.7-1.68s-.233-1.208-.7-1.663a2.32 2.32 0 0 0-1.68-.682c-.653 0-1.208.228-1.663.683A2.263 2.263 0 0 0 2.03 4.41c0 .653.228 1.213.683 1.68.454.467 1.009.7 1.662.7" fill-rule="nonzero" />
</svg>
