<?xml version="1.0" encoding="UTF-8"?>
<svg width="604px" height="113px" viewBox="0 0 604 113" version="1.1" xmlns="http://www.w3.org/2000/svg" xmlns:xlink="http://www.w3.org/1999/xlink">
    <!-- Generator: Sketch 50.2 (55047) - http://www.bohemiancoding.com/sketch -->
    <title>Group 10 Copy 4</title>
    <desc>Created with Sketch.</desc>
    <defs></defs>
    <g id="Page-1" stroke="none" stroke-width="1" fill="none" fill-rule="evenodd">
        <g id="Group-10-Copy-4" fill="#000000" fill-rule="nonzero">
            <path d="M117.47083,107.25 L74.6290328,5.1 L48.4148669,5.1 L4.55302663,107.25 L29.4563873,107.25 L36.8063873,88.65 L84.3043298,88.65 L91.5043298,107.25 L117.47083,107.25 Z M31.4966393,110.25 L0,110.25 L46.4381598,2.1 L76.6239939,2.1 L121.982196,110.25 L89.4486968,110.25 L82.2486968,91.65 L38.8466393,91.65 L31.4966393,110.25 Z M43.877382,70.65 L60.7909302,27.5031935 L77.3593039,70.65 L43.877382,70.65 Z M72.9937227,67.65 L60.7620964,35.7968065 L48.2756446,67.65 L72.9937227,67.65 Z M130.676513,107.25 L155.126513,107.25 L155.126513,5.1 L130.676513,5.1 L130.676513,107.25 Z M158.126513,2.1 L158.126513,110.25 L127.676513,110.25 L127.676513,2.1 L158.126513,2.1 Z M235.976513,108.45 C246.91394,108.45 255.468091,105.47881 261.720358,99.560634 C267.951018,93.6629099 271.076513,85.3600673 271.076513,74.55 L271.076513,5.1 L210.476513,5.1 L210.476513,24.75 L246.476513,24.75 L246.476513,73.95 C246.476513,78.2022935 245.383142,81.5665117 243.150704,83.9706766 C240.902037,86.3923171 237.825322,87.6 234.026513,87.6 C230.560433,87.6 226.779382,86.5082882 222.678595,84.3527464 C219.092675,82.4678396 215.60264,79.8811095 212.2065,76.5970817 L201.264729,92.8794795 C210.554233,103.276415 222.091746,108.45 235.976513,108.45 Z M207.476513,27.75 L207.476513,2.1 L274.076513,2.1 L274.076513,74.55 C274.076513,86.1400447 270.652074,95.2370281 263.782669,101.739366 C256.93487,108.221252 247.639199,111.45 235.976513,111.45 C220.837288,111.45 208.222297,105.607811 198.23834,93.9770163 L197.494805,93.1108371 L211.762152,71.8796669 L213.05122,73.203575 C216.645867,76.8953748 220.321149,79.7243743 224.074431,81.6972536 C227.773683,83.6417323 231.092562,84.6 234.026513,84.6 C237.027739,84.6 239.30097,83.7077039 240.952323,81.9293234 C242.619904,80.1334673 243.476513,77.4977455 243.476513,73.95 L243.476513,27.75 L207.476513,27.75 Z M341.276513,3.45 C330.821395,3.45 321.392908,5.74012352 312.967655,10.3180062 C304.550149,14.8916805 297.946942,21.1550159 293.135675,29.1251954 C288.329275,37.0873135 285.926513,46.0187904 285.926513,55.95 C285.926513,65.9849655 288.331269,75.0453086 293.141825,83.1600846 C297.95441,91.2782833 304.557671,97.638777 312.973516,102.260195 C321.397435,106.886046 330.823751,109.2 341.276513,109.2 C351.726926,109.2 361.151084,106.862224 369.573693,102.188407 C377.993652,97.5160595 384.59965,91.1529289 389.413224,83.081683 C394.222288,75.0180005 396.626513,65.983941 396.626513,55.95 C396.626513,46.0187904 394.223752,37.0873135 389.417351,29.1251954 C384.606084,21.1550159 378.002878,14.8916805 369.585371,10.3180062 C361.160119,5.74012352 351.731632,3.45 341.276513,3.45 Z M391.985675,27.5748046 C397.079324,36.0127685 399.626513,45.4811076 399.626513,55.95 C399.626513,66.516162 397.080788,76.0819165 391.989802,84.618317 C386.903327,93.1471541 379.909461,99.8838925 371.029334,104.811593 C362.151856,109.737824 352.226208,112.2 341.276513,112.2 C330.329169,112.2 320.405678,109.764001 311.529511,104.889805 C302.64527,100.011175 295.648666,93.2718002 290.561202,84.6899154 C285.471708,76.1046079 282.926513,66.5151375 282.926513,55.95 C282.926513,45.4811076 285.473702,36.0127685 290.567351,27.5748046 C295.656134,19.1449021 302.652792,12.5083665 311.535371,7.68199376 C320.410205,2.85982948 330.331525,0.45 341.276513,0.45 C352.221502,0.45 362.142821,2.85982948 371.017655,7.68199376 C379.900235,12.5083665 386.896893,19.1449021 391.985675,27.5748046 Z M341.576513,23.7 C347.054944,23.7 352.104037,25.1274923 356.692558,27.9755398 C361.27231,30.8181446 364.881045,34.7429729 367.503891,39.7263804 C370.119111,44.6952982 371.426513,50.1602416 371.426513,56.1 C371.426513,62.1387341 370.119659,67.6536602 367.503891,72.6236196 C364.882816,77.6036621 361.277703,81.5508653 356.703051,84.4428869 C352.112519,87.3449473 347.059518,88.8 341.576513,88.8 C336.09552,88.8 331.020072,87.3460957 326.381515,84.4469975 C321.764242,81.561202 318.063366,77.6240994 315.29158,72.6558047 C312.514763,67.678491 311.126513,62.1516849 311.126513,56.1 C311.126513,50.1515382 312.488187,44.6786593 315.21073,39.7047818 C317.936123,34.7256975 321.645455,30.8059078 326.323422,27.9675905 C331.007965,25.1252834 336.102034,23.7 341.576513,23.7 Z M317.842297,41.1452182 C315.364814,45.6713882 314.126513,50.6484048 314.126513,56.1 C314.126513,61.6483731 315.388237,66.6714615 317.911446,71.1941953 C320.439687,75.7259481 323.78874,79.2887705 327.971512,81.9030025 C332.132999,84.5039318 336.657455,85.8 341.576513,85.8 C346.493561,85.8 350.990464,84.5050802 355.099976,81.9071131 C359.225367,79.2991072 362.470186,75.7463854 364.849136,71.2263804 C367.233393,66.6962923 368.426513,61.6613239 368.426513,56.1 C368.426513,50.6397014 367.233941,45.6547493 364.849136,41.1236196 C362.471957,36.6069796 359.23076,33.0818824 355.110469,30.5244602 C350.998946,27.9724807 346.498135,26.7 341.576513,26.7 C336.650941,26.7 332.095106,27.9746896 327.879604,30.5324095 C323.657527,33.0941192 320.316929,36.624255 317.842297,41.1452182 Z M463.676513,107.25 C471.701486,107.25 478.670268,106.104781 484.587276,103.825278 C490.432514,101.573423 494.89903,98.3423267 498.021657,94.1315113 C501.126649,89.9444765 502.676513,85.0835397 502.676513,79.5 C502.676513,73.0324298 500.861811,67.5647543 497.2314,63.0385282 C493.610272,58.5238754 488.651463,55.6566964 482.290797,54.4225374 L475.906368,53.1837675 L482.188409,51.5010779 C487.485403,50.0822404 491.631941,47.4584423 494.676026,43.6182114 C497.712964,39.7869982 499.226513,35.3162049 499.226513,30.15 C499.226513,25.0858195 497.739315,20.7171731 494.75521,16.9870426 C491.735742,13.212707 487.439111,10.2928972 481.834071,8.23292513 C476.160822,6.14788496 469.459232,5.1 461.726513,5.1 L413.276513,5.1 L413.276513,107.25 L463.676513,107.25 Z M499.571626,61.1614718 C503.641254,66.2352937 505.676513,72.3675022 505.676513,79.5 C505.676513,85.7165193 503.92641,91.205479 500.431369,95.9184887 C496.953963,100.607718 492.020574,104.176553 485.665751,106.624722 C479.382698,109.045243 472.051622,110.25 463.676513,110.25 L410.276513,110.25 L410.276513,2.1 L461.726513,2.1 C469.793874,2.1 476.842146,3.20209354 482.868956,5.41707487 C488.963974,7.65712432 493.717253,10.887253 497.097817,15.1129574 C500.513744,19.3828669 502.226513,24.4141265 502.226513,30.15 C502.226513,35.9838501 500.490096,41.1129608 497.027,45.4817886 C494.531512,48.6299436 491.385606,51.0566461 487.607256,52.7576399 C492.458579,54.4738914 496.456188,57.2772882 499.571626,61.1614718 Z M460.226513,46.95 L437.726513,46.95 L437.726513,23.55 L439.226513,23.55 L460.187053,23.5505191 C464.315843,23.4418668 467.658627,24.3611324 470.160299,26.3510984 C472.732378,28.3970707 474.026513,31.3088749 474.026513,34.95 C474.026513,38.6765448 472.745215,41.6759489 470.191913,43.8230431 C467.698513,45.9197659 464.357213,46.95 460.226513,46.95 Z M460.226513,43.95 C463.695851,43.95 466.354491,43.1302526 468.261113,41.5269569 C470.107834,39.9740326 471.026513,37.8234882 471.026513,34.95 C471.026513,32.1910931 470.12067,30.1529468 468.292728,28.6989016 C466.394378,27.1888501 463.737222,26.4581322 460.226513,26.55 L440.726513,26.55 L440.726513,43.95 L460.226513,43.95 Z M472.498371,85.6706002 C469.418206,87.870718 465.316934,88.95 460.226513,88.95 L437.726513,88.95 L437.726513,63.9 L439.226513,63.9 L460.19527,63.9003254 C465.289418,63.7941973 469.396299,64.7938986 472.483754,66.9440904 C475.682535,69.1718126 477.326513,72.2542728 477.326513,76.05 C477.326513,80.1281015 475.697982,83.3851631 472.498371,85.6706002 Z M460.226513,85.95 C464.736141,85.95 468.234793,85.029302 470.754656,83.2293998 C473.155072,81.5148169 474.326513,79.1719345 474.326513,76.05 C474.326513,73.2456942 473.17052,71.0782069 470.769273,69.4059096 C468.2567,67.6560819 464.763656,66.8058017 460.226513,66.9 L440.726513,66.9 L440.726513,85.95 L460.226513,85.95 Z M534.300316,104.410364 C542.792229,107.404622 551.298723,108.9 559.826513,108.9 C567.546999,108.9 574.538509,107.681967 580.809414,105.251383 C587.004426,102.850216 591.84882,99.2944785 595.375059,94.5769429 C598.874363,89.8954409 600.626513,84.2364693 600.626513,77.55 C600.626513,70.8661556 599.023901,65.5162591 595.844683,61.4487297 C592.594291,57.2901398 588.715576,54.220482 584.194987,52.2219057 C579.514053,50.1524405 573.55115,48.0740843 566.287442,45.9842999 C561.358512,44.475444 557.630605,43.2412044 555.093687,42.2771754 C552.423605,41.2625443 550.161028,39.9157725 548.315883,38.2334338 C546.304164,36.3992195 545.276513,34.0718938 545.276513,31.35 C545.276513,28.4442899 546.507028,26.1410184 548.892014,24.6121813 C551.111841,23.1892155 554.061683,22.5 557.726513,22.5 C562.207459,22.5 567.682677,23.5796203 574.17249,25.7258577 C580.088917,27.6824716 585.687198,30.1528731 590.966085,33.136911 L600.051407,13.912897 C594.833113,10.7181911 588.836416,8.13483752 582.058008,6.16543525 C574.793487,4.05479732 567.434436,3 559.976513,3 C551.765761,3 544.586002,4.28992279 538.42921,6.85929268 C532.33137,9.40406065 527.658836,13.0038193 524.378005,17.6635501 C521.11,22.3050635 519.476513,27.702673 519.476513,33.9 C519.476513,40.4775897 521.050788,45.670347 524.168689,49.5328217 C527.368638,53.496937 531.199718,56.4475824 535.676207,58.4000935 C540.30493,60.4190045 546.190711,62.4221487 553.318637,64.4021604 C558.153852,65.7116981 561.913826,66.8472604 564.607705,67.8129909 C567.437441,68.8274246 569.809908,70.2023766 571.713667,71.9429568 C573.775562,73.8281179 574.826513,76.2302921 574.826513,79.05 C574.826513,82.4561492 573.395503,85.1354877 570.608566,86.9143833 C567.989196,88.5863217 564.49038,89.4 560.126513,89.4 C554.310342,89.4 547.69737,87.8561155 540.277986,84.7860252 C533.539882,81.9978446 527.616388,78.4839811 522.51268,74.2438306 L513.249454,92.9007506 C519.214815,97.7276463 526.229151,101.564462 534.300316,104.410364 Z M573.230537,28.5741423 C567.020287,26.5203587 561.84561,25.5 557.726513,25.5 C554.591309,25.5 552.191205,26.060772 550.511012,27.1378187 C548.995979,28.1089941 548.276513,29.4556861 548.276513,31.35 C548.276513,33.2281292 548.948846,34.750765 550.337144,36.0165662 C551.892015,37.434243 553.829397,38.5874462 556.15934,39.4728246 C558.622446,40.4088051 562.294465,41.624541 567.141202,43.1084616 C574.501949,45.2259367 580.588926,47.3475385 585.40804,49.4780943 C590.387498,51.679539 594.658702,55.0598167 598.208344,59.6012703 C601.829159,64.2337844 603.626513,70.2337744 603.626513,77.55 C603.626513,84.8636007 601.678701,91.1545096 597.777968,96.3730571 C593.90417,101.555571 588.598666,105.449759 581.893613,108.048617 C575.264454,110.618058 567.906107,111.9 559.826513,111.9 C550.954216,111.9 542.110884,110.345408 533.302711,107.239636 C524.486697,104.1311 516.853194,99.8675712 510.410871,94.4478391 L509.508718,93.6888854 L521.554874,69.4269094 L523.021744,70.7277185 C528.193445,75.313944 534.325465,79.0762192 541.425041,82.0139748 C548.505729,84.9439145 554.742628,86.4 560.126513,86.4 C563.962688,86.4 566.913807,85.7136933 568.99446,84.3856167 C570.907547,83.1644973 571.826513,81.4438798 571.826513,79.05 C571.826513,77.0696839 571.127482,75.4718981 569.68936,74.1570432 C568.093102,72.6976074 566.065612,71.5225849 563.595321,70.6370091 C560.989175,69.7027301 557.299222,68.5883149 552.525048,67.2952769 C545.262243,65.2778313 539.248144,63.231016 534.47682,61.1499065 C529.553262,59.0023971 525.334422,55.7531045 521.834337,51.4171783 C518.252205,46.9796115 516.476513,41.1224793 516.476513,33.9 C516.476513,27.097262 518.292992,21.0949855 521.925022,15.9364499 C525.544226,10.7961317 530.671593,6.84596585 537.273816,4.09070732 C543.817088,1.36005071 551.387181,0 559.976513,0 C567.718666,0 575.359465,1.09518118 582.895018,3.28456475 C590.429116,5.4735255 597.061221,8.40695681 602.78765,12.0882323 L603.895366,12.8003355 L592.280597,37.3765135 L590.864975,36.5423077 C585.357509,33.2968368 579.480021,30.6409009 573.230537,28.5741423 Z" id="AI-JOBS"></path>
            <path d="M30.3346177,76.9431859 L38.3598002,91.3885143 L36.6114857,92.3598002 L36.3745752,91.9333614 L24.9634905,97.9955001 L30.8719887,107.842997 L29.1570028,108.871989 L23.1948605,98.9350848 L3.58603951,109.352271 L2.64772905,107.58604 L22.1644716,97.21777 L13.1280113,82.1570028 L13.8197507,81.7419592 L13.7001326,81.442914 L27.4835641,75.9295414 L20.6401998,63.6114857 L22.3885143,62.6401998 L22.627469,63.0703181 L34.1651401,57.6860716 L27.5909531,49.8792245 L28.1021531,49.4487403 L27.6248367,48.6699608 L43.3160435,39.0527695 L35.5909531,29.8792245 L36.0904061,29.4586325 L35.5971031,28.8214495 L49.0420239,18.4124786 L43.5915943,11.8719631 L45.1280369,10.5915943 L50.6244928,17.1873414 L59.800318,10.0834767 L53.5951076,5.16210297 L54.837897,3.59510761 L61.4290175,8.822548 L68.1785505,3.5971031 L69.4028969,5.17855051 L63.0428332,10.1024708 L71.0803821,16.4770785 L76.8792245,9.59095306 L78.4090469,10.8792245 L72.6480536,17.7204042 L84.4546928,27.0842905 L84.8519534,26.5935569 L86.4064431,27.8519534 L77.9005618,38.3592185 L93.4428611,47.1017619 L93.8592805,46.5928049 L95.4071951,47.8592805 L86.6959514,58.5063561 L100.717802,65.7297338 L100.820162,65.5972675 L101.539164,66.1528596 L102.346931,66.568982 L102.270266,66.7178022 L102.402733,66.8201625 L101.84714,67.539164 L101.431018,68.3469311 L101.282198,68.2702662 L94.8397239,76.6075854 L106.39226,81.0795349 L106.672439,80.6242443 L108.375756,81.6724391 L98.5416829,97.6528075 L120.341641,108.552786 L119.447214,110.341641 L97.4894156,99.3627418 L91.3275609,109.375756 L89.6242443,108.327561 L95.6936112,98.4648396 L81.6583592,91.4472136 L82.5527864,89.6583592 L96.7458785,96.7549053 L105.326399,82.8115591 L93.5640892,78.2584068 L84.1798375,90.4027325 L82.5972675,89.1798375 L91.6185154,77.5052814 L75.9284581,71.4317109 L71.7592566,90.1931175 L71.3110577,90.0935178 L71.3982549,90.2118568 L69.7881432,91.3982549 L60.3783586,78.6278329 L50.1561738,91.4055639 L48.5944361,90.1561738 L48.6674591,90.0648951 L48.1681996,90.1437255 L45.1483027,71.0177119 L30.3346177,76.9431859 Z M28.462685,77.691959 L15.8164598,82.750449 L23.9331016,96.2781853 L35.4031183,90.184739 L28.462685,77.691959 Z M29.3554968,75.1807683 L43.9735428,69.3335499 L35.4993825,59.2704845 L23.6011716,64.8229829 L29.3554968,75.1807683 Z M155.784663,27.6240867 L150.43632,35.4408968 L151.581853,37.4112137 L155.496547,28.6784348 L157.321565,29.4965466 L152.819411,39.5398139 L157.367128,47.3618867 L155.638113,48.3671276 L151.812228,41.7866057 L147.881217,50.5557843 L156.693852,63.2459776 L157.366143,63.6344125 L157.183328,63.9508232 L157.391766,64.2509742 L156.754022,64.6938515 L151.035866,74.5906599 L158.338458,89.4566504 L156.54335,90.3384582 L149.831524,76.6750989 L144.043651,86.692572 L156.363466,108.375447 L154.624553,109.363466 L142.883876,88.6998744 L130.365587,110.366143 L128.633857,109.365587 L141.738632,86.684246 L136.119221,76.7940827 L130.503453,89.3215652 L128.678435,88.5034534 L134.894067,74.6378115 L129.778091,65.6336927 L129.260623,66.3899912 L127.610009,65.2606233 L128.678677,63.6987241 L128.636534,63.6245529 L128.788505,63.5382056 L137.28108,51.1259809 L133.466282,43.3601431 L130.315122,48.3786581 L128.621342,47.3151219 L132.4297,41.2499582 L127.661542,31.5433496 L129.45665,30.6615418 L133.679908,39.2588872 L135.541896,36.2934987 L130.439622,28.9462236 L129.913577,29.4115704 L128.58843,27.9135773 L138.598317,19.0586773 L131.361563,6.61146075 L128.587012,4.05887448 L129.941126,2.58701246 L130.521841,3.12127091 L131.361887,2.63287236 L132.938437,5.34453925 L143.312368,14.8885552 L156.066659,3.60591244 L156.684878,2.62134188 L158.378658,3.68487814 L148.40304,19.5719737 L155.624087,26.2153368 L156.389991,26.7393767 L156.314161,26.8502052 L156.412988,26.9411255 L155.784663,27.6240867 Z M153.685839,27.1497948 L147.32143,21.2945383 L144.668297,25.5198979 L149.323083,33.5261301 L153.685839,27.1497948 Z M141.806426,16.2207346 L136.335495,11.1874782 L140.126045,17.707225 L141.806426,16.2207346 Z M143.286098,17.582033 L141.15124,19.4705608 L143.532921,23.5670514 L145.824554,19.9174131 L143.286098,17.582033 Z M144.79204,16.2498536 L146.906165,18.1948485 L152.295014,9.61260752 L144.79204,16.2498536 Z M221.673881,85.9402952 L199.414794,94.2874526 L198.712547,92.4147943 L223.523962,83.110514 L224.22723,82.6041609 L224.364782,82.7952062 L224.585206,82.7125474 L224.889486,83.5239615 L228.634497,88.7253658 L238.414405,84.7522782 L238.433157,84.7043579 L238.483689,84.7241315 L238.55009,84.6971564 L238.57567,84.7601241 L238.707283,84.8116247 L238.62338,84.6760895 L240.323911,83.6233802 L251.0209,100.903132 L258.492705,94.5808355 L243.950288,84.1933952 L241.516702,85.3290686 L240.670931,83.5167023 L243.267569,82.304938 L243.767505,81.6050283 L244.162615,81.88725 L258.322095,75.2794926 L252.340742,69.0489167 L245.71028,73.384219 L244.615781,71.7102797 L250.931391,67.5808425 L244.586081,60.9711445 L245.050675,60.5251346 L244.595636,60.1666194 L253.242629,49.1915903 L245.309332,39.73266 L244.600932,39.2064198 L244.726359,39.0375762 L244.591196,38.8764207 L245.26734,38.3093324 L250.584012,31.1522734 L243.6067,26.242313 L244.05174,25.6098882 L237.607269,21.9273334 L226.540826,27.3375945 L225.662406,25.5408258 L235.507692,20.7275748 L224.282769,14.3133335 L209.935784,27.4127549 L208.587245,25.9357839 L222.458386,13.270829 L208.635618,5.3721042 L209.627896,3.63561792 L224.010118,11.8540305 L233.064216,3.58724514 L234.412755,5.06421613 L225.834501,12.8965351 L237.680156,19.665481 L254.590743,11.3980829 L246.587121,4.06142951 L247.93857,2.58712123 L256.521038,10.4543832 L271.34229,3.20843761 L271.79358,2.60093215 L272.107667,2.83425361 L272.459174,2.66240551 L272.791562,3.34229038 L273.399068,3.79358015 L273.165746,4.10766674 L273.337594,4.45917423 L272.65771,4.79156239 L263.618208,16.9601223 L273.412879,25.9385705 L272.933038,26.462033 L273.404364,26.8333806 L264.315318,38.3694775 L273.3933,44.757687 L272.242313,46.3932998 L263.07576,39.9427625 L255.819871,49.1521597 L264.070738,58.9897312 L272.28972,53.615781 L273.384219,55.2897203 L265.36509,60.5329971 L272.27283,68.7691495 L272.483298,68.6709314 L272.850622,69.4580547 L273.408804,70.1235793 L273.230851,70.2728304 L273.329069,70.4832977 L272.541945,70.8506219 L271.876421,71.4088038 L271.72717,71.2308505 L261.700004,75.9101943 L271.413919,86.0288555 L270.351349,87.0489228 L270.409329,87.117444 L261.746732,94.4473335 L266.394972,97.7675047 L265.232495,99.3949717 L260.171658,95.7800881 L252.085236,102.622445 L254.37662,106.323911 L252.676089,107.37662 L250.5416,103.928599 L242.882556,110.409329 L242.455315,109.904407 L241.77277,110.395839 L234.48719,100.276978 L230.566843,110.295642 L228.704358,109.566843 L233.095744,98.3444131 L227.9303,91.1701855 L221.396692,93.8244638 L217.670478,106.245174 L215.754826,105.670478 L219.018828,94.7904708 L205.44991,100.302844 L204.697156,98.4499105 L219.756333,92.3321198 L221.673881,85.9402952 Z M223.880423,85.5453572 L222.134197,91.3661128 L226.727752,89.4999808 L223.880423,85.5453572 Z M229.837044,90.3955704 L233.963514,96.126778 L237.410016,87.3190508 L229.837044,90.3955704 Z M242.558216,108.063864 L249.477264,102.209286 L239.829493,86.6244259 L235.354961,98.0593428 L242.558216,108.063864 Z M268.622706,86.0092959 L259.785339,76.8037049 L246.031496,83.2221649 L260.067778,93.2480809 L268.622706,86.0092959 Z M270.396794,69.6446332 L263.679262,61.6352688 L254.044034,67.9352255 L260.236761,74.385982 L270.396794,69.6446332 Z M246.89135,60.4845131 L252.634683,66.4671514 L262.38491,60.0920029 L254.555501,50.7569377 L246.89135,60.4845131 Z M247.273641,38.9624238 L254.506999,47.5868123 L261.437751,38.7900893 L252.220166,32.3036407 L247.273641,38.9624238 Z M271.097665,26.5294284 L262.419201,18.5741696 L253.413208,30.6976223 L262.677309,37.2168043 L271.097665,26.5294284 Z M321.087597,34.0742354 L310.816157,39.2099557 L314.846652,46.4648484 L315.394972,47.2324953 L315.307739,47.2948043 L315.3598,47.3885143 L314.535152,47.8466524 L287.453118,67.1909624 L304.264959,69.5098371 L311.474774,52.6869357 L313.313064,53.4747743 L306.319447,69.7932147 L314.966533,70.9859162 L315.301936,69.7700784 L317.229922,70.3019364 L312.596882,87.096704 L328.827556,85.2417699 L328.585786,85 L330,83.5857864 L331.365888,84.9516748 L331.879986,84.8929207 L331.953902,85.5396889 L344.543666,98.1294527 L347.858237,91.7765264 L339.703067,88.5638839 L340.436116,86.7030671 L348.788552,89.9934208 L351.575981,84.6508491 L352.975847,85.381214 L353.060448,83.9430036 L357.286168,84.1915754 L356.773728,82.2955456 L368.346237,79.1678403 L367.294357,74.4343774 L364.849339,76.4061655 L363.593835,74.8493394 L366.810167,72.255523 L366.806882,72.2407434 L366.836714,72.2341142 L375.567254,65.1933562 L371.031052,63.1142636 L369.46102,66.3369593 L367.663041,65.4610204 L379.224234,41.7301508 L373.26927,38.752669 L370.784465,51.1766968 L368.823303,50.7844645 L371.415081,37.8255746 L362.18,33.2080341 L362.315163,33.5199482 L360.480052,34.3151631 L353.049875,17.1686006 L340.992145,25.2070871 L340.571574,26.2935622 L325.891881,20.6111004 L322.357395,32 L323,32 L323,34 L321.736705,34 L321.658665,34.2514634 L321.087597,34.0742354 Z M324.022371,19.8874193 L307.706438,13.571574 L308.428426,11.7064378 L324.61656,17.9728122 L329.341335,2.74853665 L330.526688,3.11640479 L331.501557,2.67771382 L340.658271,23.0259686 L352.241734,15.3036603 L346.684837,2.48005181 L348.519948,1.68483694 L353.932884,14.176227 L365.27735,6.61324951 L366.38675,8.2773501 L354.741025,16.0411673 L360.428045,29.1650611 L376.096549,14.4182339 L376.215535,13.8233032 L376.638734,13.9079428 L378.042835,12.5864353 L379.413565,14.0428353 L377.932436,15.4368386 L373.675828,36.71988 L380.100219,39.9320755 L387.53898,24.6630407 L389.336959,25.5389796 L381.889168,40.8265502 L399.341641,49.5527864 L398.447214,51.3416408 L396.892977,50.5645224 L379.338166,64.7216279 L395.088048,71.9403238 L395.704454,71.7737276 L395.842999,72.286343 L396.32572,72.5075899 L396.059676,73.0880482 L396.226272,73.7044544 L395.713657,73.8429991 L395.49241,74.3257195 L394.911952,74.0596762 L370.713253,80.5998651 L371.699824,85.0394375 L389.056996,86.0604476 L388.939552,88.0569964 L372.150934,87.0694306 L375.104459,100.360293 L375.296933,100.436116 L375.184648,100.721146 L375.193118,100.759257 L375.167382,100.764976 L374.563884,102.296933 L349.72948,92.513683 L346.02608,99.6118666 L355.414214,109 L354,110.414214 L345.056334,101.470547 L340.424019,110.349151 L338.650849,109.424019 L343.57392,99.9881334 L331.589325,88.0035386 L320.394297,108.358135 L318.641865,107.394297 L329.77836,87.1461255 L312.023489,89.1752535 L308.698064,101.229922 L306.770078,100.698064 L309.881246,89.4200813 L295.120014,91.1070793 L294.892921,89.1200139 L295.910435,89.0037265 L303.447995,71.4160876 L284.872741,68.8539837 L285.070624,67.4193381 L284.605028,66.7675047 L312.692261,46.7051957 L309.025612,40.1052279 L284.552786,52.3416408 L283.658359,50.5527864 L308.053409,38.3552617 L305.633819,34 L290,34 L290,32 L304.522708,32 L297.6402,19.6114857 L299.388514,18.6401998 L306.810626,32 L320.263295,32 L324.022371,19.8874193 Z M326.486069,18.6964933 L338.632701,23.3984153 L330.58026,5.50410139 L326.486069,18.6964933 Z M316.763932,34 L307.921737,34 L309.843953,37.4599895 L316.763932,34 Z M314.43,72.930847 L305.502482,71.6994653 L298.198436,88.7422408 L310.454639,87.3415318 L314.43,72.930847 Z M372.859109,99.4757611 L370.07501,86.9473174 L353.153016,85.951906 L350.659796,90.7305774 L372.859109,99.4757611 Z M357.399301,84.1982303 L369.6239,84.9173244 L368.780544,81.1222189 L357.399301,84.1982303 Z M392.068487,72.7564215 L377.59869,66.1244311 L369.031778,73.0332308 L370.278946,78.6454865 L392.068487,72.7564215 Z M371.907234,61.315784 L377.30673,63.7905529 L394.926329,49.5811986 L381.013183,42.6246255 L371.907234,61.315784 Z M422.511475,74.3581237 L412.540227,65.9209145 L412.145521,66.4067066 L410.593293,65.1455214 L411.664256,63.8274132 L411.608598,63.7470178 L411.885123,63.5555774 L422.75861,50.1728238 L411.585786,39 L412.044325,38.5414612 L411.603092,38.2205644 L424.943227,19.8778797 L411.588047,4.92007811 L413.079922,3.58804657 L426.146806,18.2229573 L436.779436,3.60309222 L438.396908,4.77943561 L438.26361,4.96272007 L451.060765,13.9681254 L464.163343,3.59525123 L464.451805,3.95962391 L464.645086,3.63104566 L482.474249,14.1187887 L486.834762,8.59547295 L488.404527,9.83476152 L484.214319,15.142359 L500.368954,24.6450859 L499.354914,26.3689543 L482.963383,16.7268773 L472.957585,29.4008878 L497.36765,43.6400921 L496.359908,45.3676499 L470.63235,30.3599079 L471.097872,29.5618696 L470.595473,29.1652385 L481.223314,15.703307 L464.509811,5.87183505 L452.766611,15.1685354 L466.3933,24.757687 L465.242313,26.3932998 L451.131186,16.4632471 L439.836657,25.4047488 L438.595251,23.8366571 L449.42534,15.2628371 L437.087124,6.58038879 L427.509679,19.7493748 L433.404727,26.3518278 L438.403009,23.6444249 L439.355575,25.4030088 L434.773567,27.8849296 L438.692668,32.2743223 L439.406707,32.8544786 L439.313304,32.9694351 L439.411953,33.0799219 L438.725678,33.6926681 L425.448286,50.0340728 L427.889699,52.4754859 L439.252982,44.6085978 L439.981216,45.660491 L440.871963,44.5915943 L447.547816,50.1548051 L450.611486,44.6401998 L452.3598,45.6114857 L449.111709,51.4580494 L452.881007,54.5991312 L466.259488,44.3079923 L466.72265,43.6132495 L466.958366,43.7703937 L467.182913,43.5976653 L467.692008,44.259488 L480.38675,52.7226499 L479.934561,53.4009345 L480.375756,53.6724391 L472.639958,66.2431111 L483.872419,67.2961544 L491.863777,57.5923625 L493.407637,58.863777 L486.27763,67.5216429 L503.088975,69.0977065 L502.902294,71.0889749 L484.741915,69.3864395 L478.42892,77.0522196 L482.240632,81.0645476 L503.842655,77.8642479 L504.135752,79.8426548 L483.924395,82.8369299 L497.413749,97.03625 L495.96375,98.4137489 L481.506122,83.1951927 L476.446143,83.944819 L481.189606,105.764747 L480.365086,105.94399 L479.108465,107.410048 L465.311642,95.5841995 L455.217375,109.397408 L453.602592,108.217375 L454.124502,107.503182 L446.306539,97.4515151 L431.92154,107.574292 L432.391402,108.252982 L430.747018,109.391402 L427.312858,104.430949 L423.120775,109.409047 L421.590953,108.120775 L426.133146,102.726921 L420.138297,94.0676946 L413.20642,103.399068 L411.600932,102.20642 L418.936447,92.3316886 L411.608598,81.7470178 L412.085862,81.4166044 L411.634092,80.6335369 L422.511475,74.3581237 Z M424.352489,73.2959998 L438.005214,65.4194278 L427.655755,55.0699687 L413.992039,64.5294646 L424.352489,73.2959998 Z M439.422678,88.0485978 L439.985278,88.5223666 L441.175412,87.5967072 L446.714738,94.7186977 L457.322176,87.2542041 L457.891535,86.589952 L458.060412,86.7347043 L458.242313,86.6067002 L458.745796,87.3221758 L464.972142,92.6590437 L473.782625,80.6025923 L474.456243,81.0948513 L475.764747,80.810394 L476.020329,81.9860739 L479.822358,81.4228103 L475.586251,76.96375 L477.03625,75.5862511 L477.041087,75.591343 L482.336704,69.1609509 L471.471219,68.1423117 L471.327561,68.3757557 L470.854218,68.0844679 L468.911025,67.9022935 L469.097706,65.9110251 L470.41969,66.034961 L478.07932,53.5880635 L467.041634,46.2296063 L454.455525,55.9112288 L466.408406,65.8719631 L465.128037,67.4084057 L452.830993,57.1608688 L441.382,65.9677863 L441.414214,66 L440,67.4142136 L439.964441,67.3786546 L431.239636,79.1235851 L440.409329,86.882556 L439.422678,88.0485978 Z M438.575926,87.9511206 L430.044591,80.732299 L421.397397,92.3727525 L427.468145,101.14161 L438.575926,87.9511206 Z M424.133997,75.7310272 L413.945552,81.6089763 L420.195547,90.6367465 L428.51475,79.4378185 L424.133997,75.7310272 Z M425.975012,74.6689033 L429.709795,77.8291045 L436.619144,68.5280578 L425.975012,74.6689033 Z M594.248539,90.1172617 L590.969224,77 L575.730052,77 L594.248539,90.1172617 Z M596.753717,91.8917629 L599.394042,93.7619929 L598.238007,95.3940418 L597.817136,95.0959244 L597.804984,95.1627553 L565.275992,89.2483931 L561.597556,93.7923432 L581.371989,105.657003 L580.342997,107.371989 L560.326708,95.3622149 L548.148047,110.406443 L546.593557,109.148047 L546.920608,108.744042 L548.872964,89.2204852 L526.012657,102.141528 L526.068706,102.926212 L524.073788,103.068706 L523.299471,92.2282616 L511.1682,94.1437255 L510.856274,92.1681996 L523.156457,90.2260655 L521.931294,73.0737884 L523.926212,72.9312943 L525.139191,89.9130023 L550.8318,85.8562745 L551.02783,87.0977954 L551.094541,87.1044665 L551.069082,87.3590571 L551.08935,87.4874194 L559.8656,92.7531697 L563.032946,88.8405665 L562.837245,88.8049845 L563.195016,86.8372447 L564.467404,87.0685881 L564.851953,86.5935569 L565.720114,87.2963534 L594.087425,92.4540465 L572.605958,77.2380071 L572.937858,76.7694429 L573,75.9615952 L573,75 L573.073969,75 L574.920197,50.9990391 L563.311496,69.3794819 L561.620518,68.3114959 L573.314162,49.7965593 L549.868094,56.4095529 L548.862261,64.1209396 L546.87906,63.8622612 L547.774117,57.0001619 L536.30901,60.2339098 L535.76609,58.3090105 L548.055517,54.8427619 L549.822162,41.2984789 L527.693214,55.380537 L527.430434,54.9675967 L526.0865,55.0795912 L525.039614,42.5169671 L519.100974,43.0916742 L518.908326,41.1009742 L524.873509,40.5236984 L524.262834,33.1956054 L517.963674,32.9623032 L518.037697,30.9636735 L524.095537,31.188038 L522.970896,17.6923491 L522.720393,17.6021679 L523.397832,15.7203931 L536.053751,20.276524 L528.605958,9.76199286 L530.238007,8.60595818 L539.343559,21.4608548 L548.709739,24.8326798 L553.073645,20.0323835 L542.610009,4.73937665 L544.260623,3.61000882 L554.456332,18.5114285 L568.861002,2.66629133 L568.76,2.32 L570.68,1.76 L575.812701,19.3578316 L602.734564,12.7915235 L603.208477,14.7345642 L576.373257,21.2797396 L578.24,27.68 L576.32,28.24 L574.428286,21.7541229 L560.265436,25.2084765 L559.791523,23.2654358 L573.867729,19.8322149 L569.517547,4.91730489 L555.617046,20.2078567 L558.389991,24.2606233 L556.739377,25.3899912 L554.234359,21.7288118 L549.873589,26.5256586 L549.602168,27.2796069 L549.290261,27.1673202 L549.067267,27.4126129 L548.474341,26.8735893 L541.364593,24.3140801 L546.830078,32.030058 L547.036326,32.0376968 L547.026347,32.3071438 L548.394042,34.2380071 L546.761993,35.3940418 L545.768971,33.992129 L526.27598,33.2701664 L526.864386,40.3310329 L551.899026,37.9083258 L552.016685,39.1241404 L552.12094,39.1377388 L552.061845,39.5907945 L552.091674,39.8990258 L552.020746,39.9058898 L550.149494,54.2521529 L576.69099,46.7660902 L577.23391,48.6909895 L576.192376,48.9847555 L576.17606,49.0105889 L577.073751,49.079642 L575.079877,75 L590.469224,75 L584.787322,52.2723931 L586.727607,51.7873219 L592.530776,75 L602,75 L602,77 L593.030776,77 L596.753717,91.8917629 Z M549.213868,105.911191 L558.594752,94.3230414 L550.838084,89.6690405 L549.213868,105.911191 Z M525.854927,99.9333154 L545.761866,88.6815678 L525.282205,91.9151984 L525.854927,99.9333154 Z M527.90949,52.8722876 L547.615307,40.3322227 L527.030491,42.3243016 L527.90949,52.8722876 Z M525.039899,18.43719 L526.108683,31.2625989 L544.31314,31.9368381 L538.074786,23.1297492 L525.039899,18.43719 Z M443.251482,62.0064586 L451.256475,55.8487712 L448.12307,53.2376 L443.251482,62.0064586 Z M440.036429,46.4987327 L429.327098,53.9128848 L439.698246,64.284032 L446.559177,51.9343557 L440.036429,46.4987327 Z M474.265971,83.3309073 L466.495232,93.9645498 L478.886579,104.585704 L474.265971,83.3309073 Z M455.351887,105.823603 L463.788552,94.2786934 L457.939588,89.2652957 L447.944025,96.2992101 L455.351887,105.823603 Z M430.783086,105.92986 L445.077252,95.8710027 L440.008839,89.3544718 L428.647856,102.845638 L430.783086,105.92986 Z M424.180371,51.5945843 L417.775274,59.4777806 L426.218356,53.6325697 L424.180371,51.5945843 Z M414.357725,38.9435111 L424.026526,48.6123122 L436.686696,33.0305649 L432.966387,28.8638192 L414.357725,38.9435111 Z M431.597546,27.3307173 L426.306099,21.4042972 L415.754955,35.9121207 L431.597546,27.3307173 Z M361.687829,30.7258806 L371.821639,35.7927855 L375.419876,17.8016013 L361.687829,30.7258806 Z M361.368978,31.0259754 L361.273416,31.1159164 L361.296905,31.170122 L361.368978,31.0259754 Z M245.912232,25.419158 L251.777055,29.5462551 L260.937033,17.2155151 L256.174614,12.8499646 L239.779734,20.8652395 L246.364382,24.6278958 L245.912232,25.419158 Z M262.136039,15.6014678 L268.745405,6.70424453 L258.104909,11.9062649 L262.136039,15.6014678 Z M146.926012,52.6866262 L143.753014,59.7648532 L149.974457,72.429934 L154.816672,64.0491768 L146.926012,52.6866262 Z M131.947973,27.6119127 L136.698114,34.452115 L142.331703,25.4801021 L139.623512,20.8220131 L131.947973,27.6119127 Z M142.750544,46.6739526 L139.590876,51.2919296 L142.607033,57.4319642 L145.594055,50.768608 L142.750544,46.6739526 Z M143.958985,44.9077701 L146.54926,48.637766 L150.57467,39.6580054 L149.185621,37.2688408 L143.958985,44.9077701 Z M141.52988,44.916196 L136.782101,38.0793945 L134.71649,41.369072 L138.578137,49.2302822 L141.52988,44.916196 Z M142.738321,43.1500135 L148.072385,35.3540742 L143.467079,27.4329486 L137.938319,36.2380108 L142.738321,43.1500135 Z M148.770115,74.5143729 L142.689811,62.1366127 L137.133689,74.5310397 L142.898407,84.6769436 L148.770115,74.5143729 Z M131.03479,63.796978 L135.908535,72.3747685 L141.543831,59.8037237 L138.293819,53.1876282 L131.03479,63.796978 Z M99.474326,67.3389383 L85.4010181,60.0890524 L77.4070527,69.8594546 L92.8941501,75.85446 L99.474326,67.3389383 Z M75.4445013,69.0997573 L83.5831184,59.1525586 L66.6530689,50.431018 L67.1019709,49.5596199 L66.5935569,49.1480466 L74.8560844,38.941395 L61.2314973,31.2775647 L61.1207755,31.4090469 L60.4992557,30.8856619 L59.8719631,31.4084057 L59.785334,31.3044507 L46.3435309,39.5429752 L54.4090469,49.1207755 L53.8951697,49.5535142 L54.3290686,50.4832977 L37.3764217,58.3945329 L46.2620637,68.9462329 L46.8318004,68.8562745 L49.9311227,88.4853156 L59.1503621,76.9612663 L54.6017451,70.7881432 L56.2118568,69.6017451 L60.4435592,75.3447699 L65.8438262,68.5944361 L67.4055639,69.8438262 L61.6715557,77.0113365 L70.0983419,88.4476892 L74.0419506,70.7014499 L73.7064378,70.571574 L74.428426,68.7064378 L75.4445013,69.0997573 Z M76.624167,39.9359414 L68.9793025,49.3795976 L84.8780517,57.5698623 L92.1571176,48.6732262 L76.624167,39.9359414 Z M83.1962335,28.638858 L71.3592262,19.2508867 L62.5427516,29.7204503 L76.1324792,37.3646721 L83.1962335,28.638858 Z M60.7685027,28.7224353 L69.7915547,18.007561 L61.4141337,11.3633995 L51.9056886,18.7247763 L60.214666,28.6955493 L60.3300392,28.6248367 L60.4844601,28.8767866 L60.6186857,28.6381632 L60.7685027,28.7224353 Z M50.3232197,19.9499135 L37.9263078,29.5475227 L45.0406214,37.9957702 L58.4914081,29.7517396 L50.3232197,19.9499135 Z M29.9583126,49.5855284 L36.0421792,56.81012 L51.9988932,49.3636535 L44.618953,40.5999745 L29.9583126,49.5855284 Z" id="Combined-Shape"></path>
        </g>
    </g>
</svg>