<?xml version="1.0" encoding="UTF-8"?>
<svg width="267px" height="51px" viewBox="0 0 267 51" version="1.1" xmlns="http://www.w3.org/2000/svg" xmlns:xlink="http://www.w3.org/1999/xlink">
    <!-- Generator: Sketch 50.2 (55047) - http://www.bohemiancoding.com/sketch -->
    <title>AI JOBS Copy 5</title>
    <desc>Created with Sketch.</desc>
    <defs></defs>
    <g id="Page-1" stroke="none" stroke-width="1" fill="none" fill-rule="evenodd">
        <g id="Desktop-HD-Copy-5" transform="translate(-284.000000, -74.000000)" fill="#000000" fill-rule="nonzero">
            <path d="M300.547528,112.968739 L322.026815,112.968739 L325.463622,121.847156 L323.413932,122.640585 L320.520791,115.166637 L302.042284,115.166637 L298.811373,123.34282 L284,123.34282 L304.790771,74.9231173 L318.641805,74.9231173 L338.30991,121.818838 L336.283054,122.668903 L317.180231,77.1210158 L306.238971,77.1210158 L287.335697,121.144921 L297.316618,121.144921 L300.547528,112.968739 Z M310.357349,88.7462265 L312.409171,87.958327 L319.312391,105.935464 L304.921439,105.935464 L304.921439,103.737566 L316.114023,103.737566 L310.357349,88.7462265 Z M341.45051,77.1210158 L341.45051,74.9231173 L354.615922,74.9231173 L354.615922,123.34282 L341.45051,123.34282 L341.45051,121.144921 L352.418023,121.144921 L352.418023,77.1210158 L341.45051,77.1210158 Z M388.397621,121.672417 C393.099222,121.672417 396.7508,120.404081 399.411908,117.88517 L400.922825,119.48138 C397.825411,122.413284 393.63057,123.870315 388.397621,123.870315 C381.61403,123.870315 375.947086,121.24587 371.475141,116.036285 L370.930403,115.401693 L377.69066,105.341787 L378.635074,106.311726 C380.184328,107.902852 381.763369,109.118298 383.370234,109.962932 C384.937515,110.786759 386.328706,111.188441 387.54044,111.188441 C388.742851,111.188441 389.624385,110.842419 390.262764,110.154933 C390.913032,109.454645 391.254889,108.402779 391.254889,106.946497 L391.254889,87.0774956 L375.43002,87.0774956 L375.43002,74.9231173 L405.585186,74.9231173 L405.585186,107.210245 L403.387288,107.210245 L403.387288,77.1210158 L377.627918,77.1210158 L377.627918,84.8795972 L393.452787,84.8795972 L393.452787,106.946497 C393.452787,108.918954 392.937472,110.50454 391.87337,111.650496 C390.79738,112.809254 389.327186,113.38634 387.54044,113.38634 C385.938851,113.38634 384.209057,112.886892 382.347599,111.908434 C380.866959,111.130148 379.426042,110.088715 378.023741,108.786704 L373.695713,115.227222 C377.655622,119.535476 382.533412,121.672417 388.397621,121.672417 Z M446.919493,79.3614115 L447.968831,77.4301822 C451.941578,79.5887847 455.074818,82.5607546 457.352407,86.3337302 C459.633561,90.1126117 460.774416,94.3533658 460.774416,99.034063 C460.774416,103.756718 459.634633,108.039537 457.35543,111.861231 C455.079532,115.677383 451.948338,118.69346 447.977387,120.896993 C444.008378,123.099449 439.571783,124.2 434.685361,124.2 C429.800662,124.2 425.365648,123.111301 421.397598,120.932315 C417.423634,118.75008 414.290434,115.732071 412.013811,111.891707 C409.735701,108.048835 408.596307,103.755967 408.596307,99.034063 C408.596307,94.3533658 409.737162,90.1126117 412.018316,86.3337302 C414.295905,82.5607546 417.429145,79.5887847 421.401892,77.4301822 C425.368964,75.274663 429.802388,74.1978109 434.685361,74.1978109 L434.685361,76.3957093 C430.161283,76.3957093 426.088924,77.384861 422.45123,79.3614115 C418.819211,81.3348787 415.974227,84.03343 413.899955,87.4695973 C411.829248,90.8998587 410.794206,94.7472899 410.794206,99.034063 C410.794206,103.367546 411.830709,107.272757 413.90446,110.770903 C415.979698,114.271556 418.824722,117.011983 422.455524,119.005776 C426.092241,121.002817 430.163009,122.002102 434.685361,122.002102 C439.205992,122.002102 443.275179,120.992691 446.910937,118.975161 C450.544753,116.958708 453.391782,114.216349 455.467744,110.735442 C457.540402,107.260077 458.576517,103.366795 458.576517,99.034063 C458.576517,94.7472899 457.541475,90.8998587 455.470768,87.4695973 C453.396496,84.03343 450.551512,81.3348787 446.919493,79.3614115 Z M427.884264,86.3577502 L429.024375,88.2368207 C427.235235,89.3223659 425.820805,90.8170472 424.76975,92.7372439 C423.716607,94.6612553 423.190353,96.7763937 423.190353,99.1 C423.190353,101.465204 423.726441,103.599443 424.798433,105.520937 C425.87411,107.449038 427.294735,108.960341 429.06973,110.069713 C430.829131,111.169339 432.737256,111.715937 434.817235,111.715937 C436.895742,111.715937 438.791006,111.17018 440.526982,110.072724 C442.274591,108.967914 443.648155,107.464012 444.658415,105.544517 C445.672564,103.617635 446.18037,101.474692 446.18037,99.1 C446.18037,96.7700172 445.672965,94.649065 444.658415,92.7214201 C443.649453,90.8043907 442.278542,89.3134008 440.534669,88.2309969 C438.797221,87.1525803 436.899093,86.615937 434.817235,86.615937 L434.817235,84.4180385 C437.307029,84.4180385 439.606846,85.0682484 441.693759,86.3635741 C443.774249,87.6549123 445.414429,89.4387583 446.603376,91.6977568 C447.786735,93.9461397 448.378269,96.4187493 448.378269,99.1 C448.378269,101.824458 447.787137,104.319034 446.603376,106.56818 C445.415727,108.824713 443.7782,110.617626 441.701447,111.930516 C439.61306,113.25076 437.310381,113.913835 434.817235,113.913835 C432.325564,113.913835 430.013765,113.251601 427.904846,111.933527 C425.811521,110.625199 424.133139,108.839686 422.879033,106.59176 C421.62124,104.337226 420.992454,101.833946 420.992454,99.1 C420.992454,96.4123729 421.609096,93.9339495 422.841778,91.6819329 C424.076549,89.4261018 425.761125,87.6459472 427.884264,86.3577502 Z M488.489915,121.144921 C491.966226,121.144921 494.976475,120.65023 497.523836,119.668869 C500.018616,118.707766 501.913597,117.336929 503.234256,115.55604 C504.541995,113.792574 505.193943,111.747827 505.193943,109.386165 C505.193943,106.640582 504.428554,104.334474 502.897056,102.425075 C501.372359,100.524154 499.285212,99.3173676 496.588646,98.7941532 L491.911204,97.8865898 L496.513633,96.6537961 C498.753279,96.0538911 500.494421,94.9521511 501.772191,93.3401958 C503.044723,91.734847 503.677393,89.8660381 503.677393,87.6929072 C503.677393,85.5652172 503.056703,83.7419394 501.808225,82.1813418 C500.533838,80.588358 498.712037,79.3503389 496.31997,78.4712032 L497.078161,76.4082189 C499.829202,77.4192852 501.985558,78.8846542 503.524495,80.8083255 C505.089341,82.7643829 505.875291,85.0731128 505.875291,87.6929072 C505.875291,90.3551769 505.079341,92.7062908 503.494592,94.7055135 C502.556543,95.8888981 501.417602,96.8491177 500.085102,97.5844324 C501.8809,98.3758565 503.394104,99.531986 504.611583,101.049882 C506.464866,103.360468 507.391841,106.153434 507.391841,109.386165 C507.391841,112.211569 506.593191,114.716426 504.99969,116.865238 C503.419108,118.996629 501.182081,120.614904 498.313962,121.719835 C495.498425,122.804509 492.222747,123.34282 488.489915,123.34282 L464.57678,123.34282 L464.57678,74.9231173 L487.632735,74.9231173 L487.632735,77.1210158 L466.774678,77.1210158 L466.774678,121.144921 L488.489915,121.144921 Z M486.973365,93.3195271 L486.973365,95.5174256 L476.643242,95.5174256 L476.643242,84.3521016 L477.742192,84.3521016 L486.944455,84.3524819 C488.855735,84.3021851 490.425617,84.7339028 491.613704,85.6789717 C492.853374,86.6650726 493.479144,88.0730566 493.479144,89.8028897 C493.479144,91.5659985 492.862778,93.0088561 491.636866,94.0397368 L490.222299,92.3575487 C490.930547,91.7619764 491.281246,90.9410212 491.281246,89.8028897 C491.281246,88.7193987 490.939951,87.951485 490.24546,87.3990493 C489.499387,86.8055816 488.431818,86.5120001 486.973365,86.55 L478.841141,86.55 L478.841141,93.3195271 L486.973365,93.3195271 Z M486.973365,111.781874 L486.973365,113.979772 L476.643242,113.979772 L476.643242,102.089142 L477.742192,102.089142 L486.950475,102.08938 C489.275953,102.040933 491.171198,102.502275 492.612616,103.50612 C494.135595,104.566766 494.929757,106.055821 494.929757,107.869615 C494.929757,109.802369 494.146912,111.368059 492.623325,112.456336 L491.345822,110.667832 C492.283893,109.997782 492.731859,109.10185 492.731859,107.869615 C492.731859,106.782168 492.295211,105.963453 491.356531,105.309729 C490.33629,104.599205 488.890763,104.247333 486.973365,104.28704 L478.841141,104.28704 L478.841141,111.781874 L486.973365,111.781874 Z M519.680879,119.921691 C523.367411,121.221566 527.057338,121.870228 530.755502,121.870228 C534.096651,121.870228 537.116226,121.344169 539.820294,120.296081 C542.468761,119.269543 544.530694,117.756105 546.02983,115.750504 C547.509233,113.771302 548.250773,111.376329 548.250773,108.528984 C548.250773,105.683563 547.574832,103.427113 546.242018,101.721895 C544.85706,99.9499628 543.209565,98.6461177 541.289643,97.7973098 C539.252247,96.8965663 536.649256,95.9892998 533.466923,95.0736698 C531.291795,94.4078143 529.644894,93.8625564 528.518901,93.434679 C527.295348,92.9697288 526.253115,92.3493524 525.399494,91.5710504 C524.423835,90.6814795 523.920037,89.5405259 523.920037,88.2204028 C523.920037,86.7949153 524.535829,85.6422796 525.711692,84.8885216 C526.766553,84.2123284 528.143795,83.8905429 529.832384,83.8905429 C531.855138,83.8905429 534.305969,84.3738054 537.199722,85.3307947 L536.509617,87.4175415 C533.82068,86.5282869 531.590035,86.0884413 529.832384,86.0884413 C528.531817,86.0884413 527.557331,86.3161249 526.897823,86.7388864 C526.359316,87.0840831 526.117936,87.5358973 526.117936,88.2204028 C526.117936,88.9223563 526.361416,89.4737677 526.880336,89.9469005 C527.521293,90.5313024 528.325277,91.0098642 529.299633,91.3801196 C530.371549,91.7874477 531.977505,92.3191493 534.092416,92.9667363 C537.345842,93.9026534 540.039734,94.8416031 542.178366,95.7871035 C544.434471,96.7845395 546.369515,98.315955 547.973714,100.368385 C549.630056,102.48753 550.448671,105.220259 550.448671,108.528984 C550.448671,111.835786 549.563783,114.693737 547.79028,117.066396 C546.03651,119.412656 543.636754,121.174054 540.614614,122.345425 C537.648077,123.495246 534.359746,124.068126 530.755502,124.068126 C526.804941,124.068126 522.868236,123.376083 518.950001,121.994509 C515.026022,120.610909 511.624018,118.710793 508.750405,116.293309 L508.089458,115.737274 L513.793851,104.248144 L514.868528,105.20116 C517.104297,107.183823 519.757926,108.811946 522.834662,110.085078 C525.897561,111.352484 528.58407,111.979685 530.887375,111.979685 C532.496359,111.979685 533.713359,111.696662 534.549035,111.163251 C535.261947,110.708201 535.590878,110.09233 535.590878,109.188354 C535.590878,108.44084 535.335164,107.85635 534.794394,107.361932 C534.137768,106.761589 533.297073,106.274368 532.263852,105.903968 C531.131098,105.497886 529.51933,105.01111 527.428275,104.444759 C524.217299,103.552822 521.554821,102.646684 519.436549,101.722757 C517.206746,100.750183 515.295412,99.2781002 513.712868,97.317635 C512.070213,95.2827045 511.260143,92.6106797 511.260143,89.341331 C511.260143,86.2622768 512.085443,83.5351982 513.735349,81.1918533 C515.375858,78.861855 517.69639,77.0740984 520.672498,75.8321002 C523.605417,74.6081263 526.990271,74 530.821439,74 C534.266379,74 537.666403,74.4873367 541.018592,75.4612836 C544.369715,76.4349207 547.323787,77.7415294 549.87805,79.3835561 L550.6896,79.9052662 L545.727713,90.4043309 L543.740558,89.4651962 L547.870261,80.7269856 C545.690703,79.4369991 543.203087,78.3847537 540.405371,77.5719038 C537.251748,76.6556486 534.058143,76.1978984 530.821439,76.1978984 C527.267631,76.1978984 524.168749,76.7546467 521.518978,77.8604567 C518.912397,78.9482425 516.92509,80.4792794 515.532485,82.4571835 C514.149276,84.421741 513.458041,86.7058207 513.458041,89.341331 C513.458041,92.1382123 514.120547,94.3234944 515.423091,95.9370935 C516.785746,97.6251579 518.412993,98.878442 520.315259,99.7081537 C522.329057,100.586512 524.897525,101.460655 528.009684,102.325167 C530.14546,102.903606 531.808528,103.405875 533.005558,103.834999 C534.30212,104.299805 535.395557,104.933501 536.277468,105.739819 C537.275234,106.652063 537.788777,107.825874 537.788777,109.188354 C537.788777,110.833952 537.084705,112.152213 535.731583,113.015908 C534.501224,113.801243 532.882963,114.177583 530.887375,114.177583 C528.267363,114.177583 525.305331,113.486058 521.994292,112.115973 C519.179469,110.951219 516.681064,109.500592 514.502239,107.76375 L510.832634,115.154643 C513.354879,117.141295 516.302589,118.730502 519.680879,119.921691 Z" id="AI-JOBS-Copy-5"></path>
        </g>
    </g>
</svg>