<?xml version="1.0" standalone="no"?>
<!DOCTYPE svg PUBLIC "-//W3C//DTD SVG 20010904//EN"
 "http://www.w3.org/TR/2001/REC-SVG-20010904/DTD/svg10.dtd">
<svg version="1.0" xmlns="http://www.w3.org/2000/svg"
 width="171.000000pt" height="171.000000pt" viewBox="0 0 171.000000 171.000000"
 preserveAspectRatio="xMidYMid meet">
<metadata>
Created by potrace 1.11, written by Peter Selinger 2001-2013
</metadata>
<g transform="translate(0.000000,171.000000) scale(0.100000,-0.100000)"
fill="#000000" stroke="none">
<path d="M511 1440 c-4 -3 -58 -124 -121 -270 -62 -146 -121 -283 -131 -305
-9 -22 -70 -164 -135 -315 -64 -151 -118 -278 -120 -281 -2 -4 92 -7 210 -7
l213 -1 35 92 35 92 185 2 184 1 25 -65 c13 -36 30 -68 37 -71 12 -4 86 23
105 38 4 4 -11 56 -35 116 l-43 109 -272 3 -271 2 -37 -94 -37 -93 -64 -1
c-35 0 -66 3 -68 6 -2 4 4 25 15 47 10 22 97 224 193 449 97 225 178 411 181
414 3 3 48 6 100 6 l95 1 19 -45 c10 -25 100 -238 199 -475 99 -236 187 -444
194 -462 l13 -31 52 22 c29 12 55 25 59 28 5 5 -379 937 -440 1068 l-11 25
-179 0 c-98 0 -181 -2 -185 -5z"/>
<path d="M1380 1442 c-6 -2 -10 -32 -10 -66 l0 -62 103 0 102 0 2 -461 1 -461
-91 0 c-51 0 -98 0 -104 -1 -9 -1 -13 -21 -13 -64 l0 -64 169 -1 170 -2 -1
590 c0 325 -3 591 -6 591 -17 3 -313 4 -322 1z"/>
<path d="M683 1098 c-29 -11 -53 -24 -53 -28 0 -4 23 -67 50 -140 28 -73 50
-134 50 -136 0 -2 -42 -4 -94 -4 l-94 0 -3 -42 c-8 -95 -23 -88 192 -88 104 0
189 1 189 3 0 15 -174 457 -179 456 -4 0 -30 -10 -58 -21z"/>
</g>
</svg>
